<svg height="512" viewBox="0 0 512 512" width="512" xmlns="http://www.w3.org/2000/svg"><g id="filled_outline" data-name="filled outline"><path d="m136 184h240v216l-96 88h-48l-96-88z" fill="#eaeae8"/><path d="m184 360a108.375 108.375 0 0 0 144 0v48a108.375 108.375 0 0 1 -144 0z" fill="#fbfdff"/><path d="m200 240-40 56 40 48 40-48z" fill="#02a437"/><path d="m216 304a7.974 7.974 0 0 1 -5.657-2.343 14.644 14.644 0 0 0 -20.686 0 8 8 0 0 1 -11.314-11.314 30.627 30.627 0 0 1 43.314 0 8 8 0 0 1 -5.657 13.657z" fill="#027226"/><path d="m312 240-40 56 40 48 40-48z" fill="#02a437"/><path d="m328 304a7.974 7.974 0 0 1 -5.657-2.343 14.644 14.644 0 0 0 -20.686 0 8 8 0 0 1 -11.314-11.314 30.627 30.627 0 0 1 43.314 0 8 8 0 0 1 -5.657 13.657z" fill="#027226"/><circle cx="256" cy="344" fill="#e82f3e" r="22"/><path d="m223.992 232a7.969 7.969 0 0 1 -4.43-1.345l-19.562-13.04-19.562 13.041a8 8 0 1 1 -8.876-13.312l24-16a8 8 0 0 1 8.876 0l24 16a8 8 0 0 1 -4.446 14.656z" fill="#0296e5"/><path d="m335.992 232a7.969 7.969 0 0 1 -4.43-1.345l-19.562-13.04-19.562 13.041a8 8 0 1 1 -8.876-13.312l24-16a8 8 0 0 1 8.876 0l24 16a8 8 0 0 1 -4.446 14.656z" fill="#0296e5"/><path d="m384 96-32-24-19.24 24.049a114.532 114.532 0 0 0 -19.219 35.33l-1.541 4.621-32-40h-48l-32 40-1.541-4.621a114.532 114.532 0 0 0 -19.219-35.33l-19.24-24.049-32 24a114.531 114.531 0 0 1 10.94 67.417l-2.94 20.583h240l-2.94-20.583a114.531 114.531 0 0 1 10.94-67.417z" fill="#ea9d2d"/><path d="m136 184c-2.557-.658-5.238 0-8 0a32 32 0 0 0 -32 32c0 .911.047 1.81.122 2.7a48 48 0 0 0 4.942 92.032 32.013 32.013 0 0 0 34.936 48.26v-126.992l7.029-7.029a57.94 57.94 0 0 0 16.971-40.971z" fill="#e82f3e"/><path d="m376 184c2.557-.658 5.238 0 8 0a32 32 0 0 1 32 32c0 .911-.047 1.81-.122 2.7a48 48 0 0 1 -4.942 92.032 32.013 32.013 0 0 1 -34.936 48.26v-126.992l-7.029-7.029a57.94 57.94 0 0 1 -16.971-40.971z" fill="#e82f3e"/><g fill="#fbb540"><circle cx="120" cy="64" r="40"/><circle cx="256" cy="64" r="40"/><circle cx="392" cy="64" r="40"/></g><path d="m331.277 352.7a8 8 0 0 0 -8.591 1.319 100.405 100.405 0 0 1 -133.372 0 8 8 0 0 0 -13.314 5.981v48a8 8 0 0 0 2.686 5.979 116.4 116.4 0 0 0 154.628 0 8 8 0 0 0 2.686-5.979v-48a8 8 0 0 0 -4.723-7.3zm-11.277 51.625a100.4 100.4 0 0 1 -128 0v-28.118a116.5 116.5 0 0 0 128 0z"/><path d="m200 352a8 8 0 0 0 6.146-2.879l40-48a8 8 0 0 0 .364-9.77l-40-56a8 8 0 0 0 -13.02 0l-40 56a8 8 0 0 0 .364 9.77l40 48a8 8 0 0 0 6.146 2.879zm0-98.236 29.9 41.86-29.9 35.876-29.9-35.88z"/><path d="m210.343 301.657a8 8 0 1 0 11.314-11.314 30.627 30.627 0 0 0 -43.314 0 8 8 0 0 0 11.314 11.314 14.644 14.644 0 0 1 20.686 0z"/><path d="m318.51 235.351a8 8 0 0 0 -13.02 0l-40 56a8 8 0 0 0 .364 9.77l40 48a8 8 0 0 0 12.292 0l40-48a8 8 0 0 0 .364-9.77zm-6.51 96.149-29.9-35.88 29.9-41.86 29.9 41.86z"/><path d="m290.343 290.343a8 8 0 0 0 11.314 11.314 14.644 14.644 0 0 1 20.686 0 8 8 0 0 0 11.314-11.314 30.627 30.627 0 0 0 -43.314 0z"/><path d="m232 344a24 24 0 1 0 24-24 24.028 24.028 0 0 0 -24 24zm24-8a8 8 0 1 1 -8 8 8.009 8.009 0 0 1 8-8z"/><path d="m180.438 230.656 19.562-13.041 19.562 13.041a8 8 0 0 0 8.876-13.312l-24-16a8 8 0 0 0 -8.876 0l-24 16a8 8 0 1 0 8.876 13.312z"/><path d="m292.438 230.656 19.562-13.041 19.562 13.041a8 8 0 0 0 8.876-13.312l-24-16a8 8 0 0 0 -8.876 0l-24 16a8 8 0 1 0 8.876 13.312z"/><path d="m90 315.516a40.005 40.005 0 0 0 37.321 52.478q.342.006.683.006v32a8 8 0 0 0 2.594 5.9l96 88a8 8 0 0 0 5.402 2.1h48a8 8 0 0 0 5.406-2.1l96-88a8 8 0 0 0 2.594-5.9v-32c.227 0 .455 0 .682-.006a40.005 40.005 0 0 0 37.318-52.478 56.017 56.017 0 0 0 1.91-102.155 40.05 40.05 0 0 0 -39.91-37.361c-.323 0-.685-.018-1.067-.043l-1.954-13.67a106.658 106.658 0 0 1 5.069-50.669 47.961 47.961 0 1 0 -41.8-42.734l-17.734 22.168a122.063 122.063 0 0 0 -17.176 28.815l-18.4-23a48 48 0 1 0 -69.874 0l-18.4 23a122.031 122.031 0 0 0 -17.175-28.816l-17.736-22.167a48.113 48.113 0 1 0 -41.8 42.734 106.655 106.655 0 0 1 5.069 50.668l-1.954 13.671c-.382.025-.744.043-1.067.043a40.05 40.05 0 0 0 -39.914 37.361 56.017 56.017 0 0 0 1.913 102.155zm278 80.964-91.112 83.52h-41.776l-91.112-83.52v-36.48c0-.155-.015-.306-.023-.458.012-.183.023-.365.023-.55v-123.679l4.687-4.685a65.438 65.438 0 0 0 18.813-38.628h177a65.438 65.438 0 0 0 18.816 38.628l4.684 4.685v123.678c0 .185.011.368.023.55-.009.153-.023.3-.023.459zm40-180.48c0 .607-.031 1.273-.1 2.037a8 8 0 0 0 5.326 8.214 40 40 0 0 1 -4.112 76.691 8 8 0 0 0 -4.915 12.115 23.991 23.991 0 0 1 -19.786 36.943c-.138 0-.275 0-.413 0v-120a8 8 0 0 0 -2.343-5.657l-7.029-7.03a49.561 49.561 0 0 1 -14-27.313h23.372a24.028 24.028 0 0 1 24 24zm-16-184a32 32 0 1 1 -32 32 32.036 32.036 0 0 1 32-32zm-136 0a32 32 0 1 1 -32 32 32.036 32.036 0 0 1 32-32zm-168 32a32 32 0 1 1 32 32 32.036 32.036 0 0 1 -32-32zm73.966 23.264 11.026 13.782a106.16 106.16 0 0 1 17.878 32.864l1.541 4.621a8 8 0 0 0 13.836 2.469l27.564-34.455a47.84 47.84 0 0 0 44.378 0l27.564 34.455a8 8 0 0 0 13.836-2.467l1.542-4.623a106.133 106.133 0 0 1 17.877-32.861l11.026-13.783a48.322 48.322 0 0 0 20.679 19.742 122.673 122.673 0 0 0 -5.573 57.544l1.635 11.448h-221.55l1.635-11.451a122.67 122.67 0 0 0 -5.573-57.543 48.322 48.322 0 0 0 20.679-19.742zm-63.2 138.987a8 8 0 0 0 5.325-8.222c-.064-.749-.094-1.412-.094-2.029a24.028 24.028 0 0 1 24-24h23.367a49.561 49.561 0 0 1 -13.995 27.313l-7.029 7.03a8 8 0 0 0 -2.34 5.657v120c-.138 0-.276 0-.414 0a23.991 23.991 0 0 1 -19.79-36.939 8 8 0 0 0 -4.915-12.115 40 40 0 0 1 -4.112-76.691z"/></g></svg>